<mxfile host="app.diagrams.net" modified="2022-10-26T03:57:44.306Z" agent="5.0 (Windows NT 10.0; Win64; x64) AppleWebKit/537.36 (KHTML, like Gecko) Chrome/106.0.0.0 Safari/537.36" etag="jFTgfUiw0qquws4L7kCv" version="20.5.1" type="github">
  <diagram id="6LHt8cgfbqG_op0viOgs" name="Page-1">
    <mxGraphModel dx="903" dy="497" grid="1" gridSize="10" guides="1" tooltips="1" connect="1" arrows="1" fold="1" page="1" pageScale="1" pageWidth="827" pageHeight="1169" background="#F1FAEE" math="0" shadow="0">
      <root>
        <mxCell id="0" />
        <mxCell id="1" parent="0" />
        <mxCell id="5K8ycT09jUTQX0kZtNFb-1" value="Admin" style="rounded=0;whiteSpace=wrap;html=1;strokeColor=#457B9D;fontColor=#1D3557;fillColor=#A8DADC;" vertex="1" parent="1">
          <mxGeometry x="90" y="70" width="120" height="60" as="geometry" />
        </mxCell>
        <mxCell id="5K8ycT09jUTQX0kZtNFb-2" value="Customer" style="rounded=0;whiteSpace=wrap;html=1;strokeColor=#457B9D;fontColor=#1D3557;fillColor=#A8DADC;" vertex="1" parent="1">
          <mxGeometry x="90" y="270" width="120" height="60" as="geometry" />
        </mxCell>
        <mxCell id="5K8ycT09jUTQX0kZtNFb-3" value="Seller" style="rounded=0;whiteSpace=wrap;html=1;strokeColor=#457B9D;fontColor=#1D3557;fillColor=#A8DADC;" vertex="1" parent="1">
          <mxGeometry x="570" y="70" width="120" height="60" as="geometry" />
        </mxCell>
        <mxCell id="5K8ycT09jUTQX0kZtNFb-5" value="E-commerce System" style="ellipse;whiteSpace=wrap;html=1;aspect=fixed;strokeColor=#457B9D;fontColor=#1D3557;fillColor=#A8DADC;rounded=0;" vertex="1" parent="1">
          <mxGeometry x="330" y="140" width="120" height="120" as="geometry" />
        </mxCell>
        <mxCell id="5K8ycT09jUTQX0kZtNFb-6" value="&lt;b style=&quot;font-size: 30px;&quot;&gt;Level&amp;nbsp; 0 DFD&lt;/b&gt;" style="text;html=1;align=center;verticalAlign=middle;resizable=0;points=[];autosize=1;strokeColor=none;fillColor=none;fontColor=#1D3557;fontSize=30;rounded=0;" vertex="1" parent="1">
          <mxGeometry x="36" y="10" width="200" height="50" as="geometry" />
        </mxCell>
        <mxCell id="5K8ycT09jUTQX0kZtNFb-7" value="" style="endArrow=classic;html=1;rounded=0;strokeColor=#457B9D;fontSize=30;fontColor=#1D3557;fillColor=#A8DADC;exitX=1;exitY=0.5;exitDx=0;exitDy=0;entryX=0.5;entryY=1;entryDx=0;entryDy=0;startArrow=classic;startFill=1;endFill=1;labelBackgroundColor=#F1FAEE;" edge="1" parent="1" source="5K8ycT09jUTQX0kZtNFb-2" target="5K8ycT09jUTQX0kZtNFb-5">
          <mxGeometry width="50" height="50" relative="1" as="geometry">
            <mxPoint x="400" y="240" as="sourcePoint" />
            <mxPoint x="390" y="300" as="targetPoint" />
            <Array as="points">
              <mxPoint x="390" y="300" />
            </Array>
          </mxGeometry>
        </mxCell>
        <mxCell id="5K8ycT09jUTQX0kZtNFb-8" value="" style="endArrow=classic;html=1;rounded=0;strokeColor=#457B9D;fontSize=30;fontColor=#1D3557;fillColor=#A8DADC;exitX=1;exitY=0.5;exitDx=0;exitDy=0;entryX=0.421;entryY=-0.011;entryDx=0;entryDy=0;endFill=1;entryPerimeter=0;labelBackgroundColor=#F1FAEE;" edge="1" parent="1" source="5K8ycT09jUTQX0kZtNFb-1" target="5K8ycT09jUTQX0kZtNFb-5">
          <mxGeometry width="50" height="50" relative="1" as="geometry">
            <mxPoint x="400" y="240" as="sourcePoint" />
            <mxPoint x="410" y="100" as="targetPoint" />
            <Array as="points">
              <mxPoint x="381" y="100" />
            </Array>
          </mxGeometry>
        </mxCell>
        <mxCell id="5K8ycT09jUTQX0kZtNFb-9" value="" style="endArrow=none;html=1;rounded=0;strokeColor=#457B9D;fontSize=30;fontColor=#1D3557;fillColor=#A8DADC;entryX=0;entryY=0.5;entryDx=0;entryDy=0;endFill=0;startArrow=classic;startFill=1;labelBackgroundColor=#F1FAEE;" edge="1" parent="1" target="5K8ycT09jUTQX0kZtNFb-3">
          <mxGeometry width="50" height="50" relative="1" as="geometry">
            <mxPoint x="400" y="140" as="sourcePoint" />
            <mxPoint x="450" y="190" as="targetPoint" />
            <Array as="points">
              <mxPoint x="400" y="100" />
            </Array>
          </mxGeometry>
        </mxCell>
        <mxCell id="5K8ycT09jUTQX0kZtNFb-11" value="&lt;b style=&quot;font-size: 30px;&quot;&gt;Level&amp;nbsp; 1 DFD&lt;/b&gt;" style="text;html=1;align=center;verticalAlign=middle;resizable=0;points=[];autosize=1;strokeColor=none;fillColor=none;fontColor=#1D3557;fontSize=30;rounded=0;" vertex="1" parent="1">
          <mxGeometry x="46" y="350" width="200" height="50" as="geometry" />
        </mxCell>
        <mxCell id="5K8ycT09jUTQX0kZtNFb-12" value="custmer" style="rounded=0;whiteSpace=wrap;html=1;strokeColor=#457B9D;fontColor=#1D3557;fillColor=#A8DADC;" vertex="1" parent="1">
          <mxGeometry x="73" y="420" width="120" height="60" as="geometry" />
        </mxCell>
        <mxCell id="5K8ycT09jUTQX0kZtNFb-13" value="admin" style="rounded=0;whiteSpace=wrap;html=1;strokeColor=#457B9D;fontColor=#1D3557;fillColor=#A8DADC;" vertex="1" parent="1">
          <mxGeometry x="45" y="910" width="120" height="60" as="geometry" />
        </mxCell>
        <mxCell id="5K8ycT09jUTQX0kZtNFb-14" value="Seller" style="rounded=0;whiteSpace=wrap;html=1;strokeColor=#457B9D;fontColor=#1D3557;fillColor=#A8DADC;" vertex="1" parent="1">
          <mxGeometry x="619" y="410" width="120" height="60" as="geometry" />
        </mxCell>
        <mxCell id="5K8ycT09jUTQX0kZtNFb-15" value="search item" style="ellipse;whiteSpace=wrap;html=1;aspect=fixed;strokeColor=#457B9D;fontColor=#1D3557;fillColor=#A8DADC;rounded=0;" vertex="1" parent="1">
          <mxGeometry x="343" y="410" width="80" height="80" as="geometry" />
        </mxCell>
        <mxCell id="5K8ycT09jUTQX0kZtNFb-19" value="place an order" style="ellipse;whiteSpace=wrap;html=1;aspect=fixed;strokeColor=#457B9D;fontColor=#1D3557;fillColor=#A8DADC;rounded=0;" vertex="1" parent="1">
          <mxGeometry x="348" y="540" width="70" height="70" as="geometry" />
        </mxCell>
        <mxCell id="5K8ycT09jUTQX0kZtNFb-20" value="" style="endArrow=classic;html=1;rounded=0;strokeColor=#457B9D;fontSize=30;fontColor=#1D3557;fillColor=#A8DADC;exitX=1;exitY=0.5;exitDx=0;exitDy=0;endFill=1;labelBackgroundColor=#F1FAEE;" edge="1" parent="1" source="5K8ycT09jUTQX0kZtNFb-12">
          <mxGeometry width="50" height="50" relative="1" as="geometry">
            <mxPoint x="383" y="670" as="sourcePoint" />
            <mxPoint x="343" y="450" as="targetPoint" />
          </mxGeometry>
        </mxCell>
        <mxCell id="5K8ycT09jUTQX0kZtNFb-21" value="" style="endArrow=classic;html=1;rounded=0;strokeColor=#457B9D;fontSize=30;fontColor=#1D3557;fillColor=#A8DADC;exitX=0.5;exitY=1;exitDx=0;exitDy=0;entryX=0.5;entryY=0;entryDx=0;entryDy=0;labelBackgroundColor=#F1FAEE;" edge="1" parent="1" source="5K8ycT09jUTQX0kZtNFb-15" target="5K8ycT09jUTQX0kZtNFb-19">
          <mxGeometry width="50" height="50" relative="1" as="geometry">
            <mxPoint x="383" y="670" as="sourcePoint" />
            <mxPoint x="433" y="620" as="targetPoint" />
          </mxGeometry>
        </mxCell>
        <mxCell id="5K8ycT09jUTQX0kZtNFb-22" value="payment" style="ellipse;whiteSpace=wrap;html=1;aspect=fixed;strokeColor=#457B9D;fontColor=#1D3557;fillColor=#A8DADC;rounded=0;" vertex="1" parent="1">
          <mxGeometry x="348" y="630" width="70" height="70" as="geometry" />
        </mxCell>
        <mxCell id="5K8ycT09jUTQX0kZtNFb-23" value="" style="endArrow=classic;html=1;rounded=0;strokeColor=#457B9D;fontSize=30;fontColor=#1D3557;fillColor=#A8DADC;exitX=0.5;exitY=1;exitDx=0;exitDy=0;entryX=0.5;entryY=0;entryDx=0;entryDy=0;labelBackgroundColor=#F1FAEE;" edge="1" parent="1" source="5K8ycT09jUTQX0kZtNFb-19" target="5K8ycT09jUTQX0kZtNFb-22">
          <mxGeometry width="50" height="50" relative="1" as="geometry">
            <mxPoint x="493" y="600" as="sourcePoint" />
            <mxPoint x="493" y="650" as="targetPoint" />
          </mxGeometry>
        </mxCell>
        <mxCell id="5K8ycT09jUTQX0kZtNFb-24" value="" style="endArrow=classic;html=1;rounded=0;strokeColor=#457B9D;fontSize=30;fontColor=#1D3557;fillColor=#A8DADC;entryX=1;entryY=0.5;entryDx=0;entryDy=0;exitX=0.012;exitY=0.653;exitDx=0;exitDy=0;exitPerimeter=0;labelBackgroundColor=#F1FAEE;" edge="1" parent="1" source="5K8ycT09jUTQX0kZtNFb-19">
          <mxGeometry width="50" height="50" relative="1" as="geometry">
            <mxPoint x="343" y="585" as="sourcePoint" />
            <mxPoint x="173" y="585" as="targetPoint" />
          </mxGeometry>
        </mxCell>
        <mxCell id="5K8ycT09jUTQX0kZtNFb-27" value="" style="endArrow=classic;html=1;rounded=0;strokeColor=#457B9D;fontSize=30;fontColor=#1D3557;fillColor=#A8DADC;entryX=1;entryY=0.5;entryDx=0;entryDy=0;exitX=0.012;exitY=0.653;exitDx=0;exitDy=0;exitPerimeter=0;labelBackgroundColor=#F1FAEE;" edge="1" parent="1">
          <mxGeometry width="50" height="50" relative="1" as="geometry">
            <mxPoint x="347.99999999999994" y="665.71" as="sourcePoint" />
            <mxPoint x="179" y="665" as="targetPoint" />
          </mxGeometry>
        </mxCell>
        <mxCell id="5K8ycT09jUTQX0kZtNFb-30" value="payment table" style="html=1;dashed=0;whitespace=wrap;shape=partialRectangle;right=0;left=0;strokeColor=#457B9D;fontSize=12;fontColor=#1D3557;fillColor=#A8DADC;rounded=0;" vertex="1" parent="1">
          <mxGeometry x="79" y="650" width="100" height="30" as="geometry" />
        </mxCell>
        <mxCell id="5K8ycT09jUTQX0kZtNFb-32" value="order table" style="html=1;dashed=0;whitespace=wrap;shape=partialRectangle;right=0;left=0;strokeColor=#457B9D;fontSize=12;fontColor=#1D3557;fillColor=#A8DADC;rounded=0;" vertex="1" parent="1">
          <mxGeometry x="73" y="570" width="100" height="30" as="geometry" />
        </mxCell>
        <mxCell id="5K8ycT09jUTQX0kZtNFb-33" value="products table" style="html=1;dashed=0;whitespace=wrap;shape=partialRectangle;right=0;left=0;strokeColor=#457B9D;fontSize=12;fontColor=#1D3557;fillColor=#A8DADC;rounded=0;" vertex="1" parent="1">
          <mxGeometry x="453" y="590" width="100" height="30" as="geometry" />
        </mxCell>
        <mxCell id="5K8ycT09jUTQX0kZtNFb-34" value="" style="endArrow=classic;html=1;rounded=0;strokeColor=#457B9D;fontSize=12;fontColor=#1D3557;fillColor=#A8DADC;exitX=0.5;exitY=1;exitDx=0;exitDy=0;entryX=0.5;entryY=0;entryDx=0;entryDy=0;startArrow=none;labelBackgroundColor=#F1FAEE;" edge="1" parent="1" source="5K8ycT09jUTQX0kZtNFb-35" target="5K8ycT09jUTQX0kZtNFb-33">
          <mxGeometry width="50" height="50" relative="1" as="geometry">
            <mxPoint x="393" y="630" as="sourcePoint" />
            <mxPoint x="443" y="580" as="targetPoint" />
            <Array as="points">
              <mxPoint x="503" y="540" />
            </Array>
          </mxGeometry>
        </mxCell>
        <mxCell id="5K8ycT09jUTQX0kZtNFb-35" value="report prodcut" style="ellipse;whiteSpace=wrap;html=1;aspect=fixed;strokeColor=#457B9D;fontColor=#1D3557;fillColor=#A8DADC;rounded=0;" vertex="1" parent="1">
          <mxGeometry x="468" y="470" width="70" height="70" as="geometry" />
        </mxCell>
        <mxCell id="5K8ycT09jUTQX0kZtNFb-36" value="" style="endArrow=classic;html=1;rounded=0;strokeColor=#457B9D;fontSize=12;fontColor=#1D3557;fillColor=#A8DADC;exitX=1;exitY=0.5;exitDx=0;exitDy=0;entryX=0.5;entryY=0;entryDx=0;entryDy=0;endFill=1;labelBackgroundColor=#F1FAEE;" edge="1" parent="1" source="5K8ycT09jUTQX0kZtNFb-15" target="5K8ycT09jUTQX0kZtNFb-35">
          <mxGeometry width="50" height="50" relative="1" as="geometry">
            <mxPoint x="423.0000000000043" y="450" as="sourcePoint" />
            <mxPoint x="503" y="450" as="targetPoint" />
            <Array as="points">
              <mxPoint x="503" y="450" />
            </Array>
          </mxGeometry>
        </mxCell>
        <mxCell id="5K8ycT09jUTQX0kZtNFb-37" value="add review" style="ellipse;whiteSpace=wrap;html=1;aspect=fixed;strokeColor=#457B9D;fontColor=#1D3557;fillColor=#A8DADC;rounded=0;" vertex="1" parent="1">
          <mxGeometry x="263" y="490" width="70" height="70" as="geometry" />
        </mxCell>
        <mxCell id="5K8ycT09jUTQX0kZtNFb-38" value="" style="endArrow=classic;html=1;rounded=0;strokeColor=#457B9D;fontSize=12;fontColor=#1D3557;fillColor=#A8DADC;entryX=0.5;entryY=0;entryDx=0;entryDy=0;labelBackgroundColor=#F1FAEE;" edge="1" parent="1" target="5K8ycT09jUTQX0kZtNFb-37">
          <mxGeometry width="50" height="50" relative="1" as="geometry">
            <mxPoint x="343" y="460" as="sourcePoint" />
            <mxPoint x="443" y="580" as="targetPoint" />
            <Array as="points">
              <mxPoint x="298" y="460" />
            </Array>
          </mxGeometry>
        </mxCell>
        <mxCell id="5K8ycT09jUTQX0kZtNFb-39" value="" style="endArrow=classic;html=1;rounded=0;strokeColor=#457B9D;fontSize=30;fontColor=#1D3557;fillColor=#A8DADC;entryX=1;entryY=0.5;entryDx=0;entryDy=0;labelBackgroundColor=#F1FAEE;" edge="1" parent="1">
          <mxGeometry width="50" height="50" relative="1" as="geometry">
            <mxPoint x="263" y="530" as="sourcePoint" />
            <mxPoint x="172.16000000000008" y="530" as="targetPoint" />
          </mxGeometry>
        </mxCell>
        <mxCell id="5K8ycT09jUTQX0kZtNFb-40" value="review table" style="html=1;dashed=0;whitespace=wrap;shape=partialRectangle;right=0;left=0;strokeColor=#457B9D;fontSize=12;fontColor=#1D3557;fillColor=#A8DADC;rounded=0;" vertex="1" parent="1">
          <mxGeometry x="73" y="510" width="100" height="30" as="geometry" />
        </mxCell>
        <mxCell id="5K8ycT09jUTQX0kZtNFb-41" value="add/edit prodcut" style="ellipse;whiteSpace=wrap;html=1;aspect=fixed;strokeColor=#457B9D;fontColor=#1D3557;fillColor=#A8DADC;rounded=0;" vertex="1" parent="1">
          <mxGeometry x="653" y="500" width="70" height="70" as="geometry" />
        </mxCell>
        <mxCell id="5K8ycT09jUTQX0kZtNFb-42" value="" style="endArrow=classic;html=1;rounded=0;strokeColor=#457B9D;fontSize=12;fontColor=#1D3557;fillColor=#A8DADC;exitX=0.5;exitY=1;exitDx=0;exitDy=0;entryX=1;entryY=0.5;entryDx=0;entryDy=0;labelBackgroundColor=#F1FAEE;" edge="1" parent="1" source="5K8ycT09jUTQX0kZtNFb-41" target="5K8ycT09jUTQX0kZtNFb-33">
          <mxGeometry width="50" height="50" relative="1" as="geometry">
            <mxPoint x="393" y="640" as="sourcePoint" />
            <mxPoint x="443" y="590" as="targetPoint" />
            <Array as="points">
              <mxPoint x="688" y="605" />
            </Array>
          </mxGeometry>
        </mxCell>
        <mxCell id="5K8ycT09jUTQX0kZtNFb-43" value="" style="endArrow=classic;html=1;rounded=0;strokeColor=#457B9D;fontSize=30;fontColor=#1D3557;fillColor=#A8DADC;exitX=0.5;exitY=1;exitDx=0;exitDy=0;entryX=0.5;entryY=0;entryDx=0;entryDy=0;labelBackgroundColor=#F1FAEE;" edge="1" parent="1" target="5K8ycT09jUTQX0kZtNFb-41">
          <mxGeometry width="50" height="50" relative="1" as="geometry">
            <mxPoint x="687.57" y="470" as="sourcePoint" />
            <mxPoint x="687.57" y="520" as="targetPoint" />
          </mxGeometry>
        </mxCell>
        <mxCell id="5K8ycT09jUTQX0kZtNFb-44" value="add&amp;nbsp; brand" style="ellipse;whiteSpace=wrap;html=1;aspect=fixed;strokeColor=#457B9D;fontColor=#1D3557;fillColor=#A8DADC;rounded=0;" vertex="1" parent="1">
          <mxGeometry x="359" y="730" width="70" height="70" as="geometry" />
        </mxCell>
        <mxCell id="5K8ycT09jUTQX0kZtNFb-45" value="add subcategory" style="ellipse;whiteSpace=wrap;html=1;aspect=fixed;strokeColor=#457B9D;fontColor=#1D3557;fillColor=#A8DADC;rounded=0;" vertex="1" parent="1">
          <mxGeometry x="313" y="900" width="70" height="70" as="geometry" />
        </mxCell>
        <mxCell id="5K8ycT09jUTQX0kZtNFb-47" value="" style="endArrow=classic;html=1;rounded=0;strokeColor=#457B9D;fontSize=12;fontColor=#1D3557;fillColor=#A8DADC;entryX=0.003;entryY=0.689;entryDx=0;entryDy=0;entryPerimeter=0;labelBackgroundColor=#F1FAEE;" edge="1" parent="1" target="5K8ycT09jUTQX0kZtNFb-45">
          <mxGeometry width="50" height="50" relative="1" as="geometry">
            <mxPoint x="169" y="951" as="sourcePoint" />
            <mxPoint x="244" y="850" as="targetPoint" />
            <Array as="points" />
          </mxGeometry>
        </mxCell>
        <mxCell id="5K8ycT09jUTQX0kZtNFb-48" value="add report category" style="ellipse;whiteSpace=wrap;html=1;aspect=fixed;strokeColor=#457B9D;fontColor=#1D3557;fillColor=#A8DADC;rounded=0;" vertex="1" parent="1">
          <mxGeometry x="368" y="980" width="70" height="70" as="geometry" />
        </mxCell>
        <mxCell id="5K8ycT09jUTQX0kZtNFb-49" value="" style="endArrow=classic;html=1;rounded=0;strokeColor=#457B9D;fontSize=12;fontColor=#1D3557;fillColor=#A8DADC;entryX=-0.047;entryY=0.414;entryDx=0;entryDy=0;entryPerimeter=0;labelBackgroundColor=#F1FAEE;" edge="1" parent="1" target="5K8ycT09jUTQX0kZtNFb-55">
          <mxGeometry width="50" height="50" relative="1" as="geometry">
            <mxPoint x="139" y="900" as="sourcePoint" />
            <mxPoint x="159" y="840" as="targetPoint" />
            <Array as="points">
              <mxPoint x="139" y="839" />
            </Array>
          </mxGeometry>
        </mxCell>
        <mxCell id="5K8ycT09jUTQX0kZtNFb-50" value="brand table" style="html=1;dashed=0;whitespace=wrap;shape=partialRectangle;right=0;left=0;strokeColor=#457B9D;fontSize=12;fontColor=#1D3557;fillColor=#A8DADC;rounded=0;" vertex="1" parent="1">
          <mxGeometry x="79" y="730" width="100" height="30" as="geometry" />
        </mxCell>
        <mxCell id="5K8ycT09jUTQX0kZtNFb-51" value="" style="endArrow=classic;html=1;rounded=0;strokeColor=#457B9D;fontSize=12;fontColor=#1D3557;fillColor=#A8DADC;exitX=0;exitY=0.714;exitDx=0;exitDy=0;entryX=0.353;entryY=1.074;entryDx=0;entryDy=0;entryPerimeter=0;exitPerimeter=0;labelBackgroundColor=#F1FAEE;" edge="1" parent="1" source="5K8ycT09jUTQX0kZtNFb-44" target="5K8ycT09jUTQX0kZtNFb-50">
          <mxGeometry width="50" height="50" relative="1" as="geometry">
            <mxPoint x="379" y="860" as="sourcePoint" />
            <mxPoint x="429" y="810" as="targetPoint" />
            <Array as="points">
              <mxPoint x="114" y="780" />
            </Array>
          </mxGeometry>
        </mxCell>
        <mxCell id="5K8ycT09jUTQX0kZtNFb-52" value="" style="endArrow=classic;html=1;rounded=0;strokeColor=#457B9D;fontSize=12;fontColor=#1D3557;fillColor=#A8DADC;entryX=0.002;entryY=0.583;entryDx=0;entryDy=0;entryPerimeter=0;labelBackgroundColor=#F1FAEE;" edge="1" parent="1" target="5K8ycT09jUTQX0kZtNFb-48">
          <mxGeometry width="50" height="50" relative="1" as="geometry">
            <mxPoint x="129" y="970" as="sourcePoint" />
            <mxPoint x="179" y="920" as="targetPoint" />
            <Array as="points">
              <mxPoint x="129" y="1020" />
            </Array>
          </mxGeometry>
        </mxCell>
        <mxCell id="5K8ycT09jUTQX0kZtNFb-53" value="report table" style="html=1;dashed=0;whitespace=wrap;shape=partialRectangle;right=0;left=0;strokeColor=#457B9D;fontSize=12;fontColor=#1D3557;fillColor=#A8DADC;rounded=0;" vertex="1" parent="1">
          <mxGeometry x="509" y="1000" width="100" height="30" as="geometry" />
        </mxCell>
        <mxCell id="5K8ycT09jUTQX0kZtNFb-55" value="approve selller" style="ellipse;whiteSpace=wrap;html=1;aspect=fixed;strokeColor=#457B9D;fontColor=#1D3557;fillColor=#A8DADC;rounded=0;" vertex="1" parent="1">
          <mxGeometry x="268" y="815" width="60" height="60" as="geometry" />
        </mxCell>
        <mxCell id="5K8ycT09jUTQX0kZtNFb-56" value="" style="endArrow=classic;html=1;rounded=0;strokeColor=#457B9D;fontSize=12;fontColor=#1D3557;fillColor=#A8DADC;entryX=0;entryY=1;entryDx=0;entryDy=0;labelBackgroundColor=#F1FAEE;" edge="1" parent="1" source="5K8ycT09jUTQX0kZtNFb-13" target="5K8ycT09jUTQX0kZtNFb-44">
          <mxGeometry width="50" height="50" relative="1" as="geometry">
            <mxPoint x="169" y="940" as="sourcePoint" />
            <mxPoint x="279" y="920" as="targetPoint" />
            <Array as="points">
              <mxPoint x="105" y="790" />
            </Array>
          </mxGeometry>
        </mxCell>
        <mxCell id="5K8ycT09jUTQX0kZtNFb-57" value="subcategory table" style="html=1;dashed=0;whitespace=wrap;shape=partialRectangle;right=0;left=0;strokeColor=#457B9D;fontSize=12;fontColor=#1D3557;fillColor=#A8DADC;rounded=0;" vertex="1" parent="1">
          <mxGeometry x="509" y="930" width="100" height="30" as="geometry" />
        </mxCell>
        <mxCell id="5K8ycT09jUTQX0kZtNFb-58" value="seller table" style="html=1;dashed=0;whitespace=wrap;shape=partialRectangle;right=0;left=0;strokeColor=#457B9D;fontSize=12;fontColor=#1D3557;fillColor=#A8DADC;rounded=0;" vertex="1" parent="1">
          <mxGeometry x="509" y="830" width="100" height="30" as="geometry" />
        </mxCell>
        <mxCell id="5K8ycT09jUTQX0kZtNFb-59" value="edite/block&lt;br&gt;customer" style="ellipse;whiteSpace=wrap;html=1;aspect=fixed;strokeColor=#457B9D;fontColor=#1D3557;fillColor=#A8DADC;rounded=0;" vertex="1" parent="1">
          <mxGeometry x="644" y="680" width="70" height="70" as="geometry" />
        </mxCell>
        <mxCell id="5K8ycT09jUTQX0kZtNFb-60" value="customer" style="html=1;dashed=0;whitespace=wrap;shape=partialRectangle;right=0;left=0;strokeColor=#457B9D;fontSize=12;fontColor=#1D3557;fillColor=#A8DADC;rounded=0;" vertex="1" parent="1">
          <mxGeometry x="499" y="750" width="100" height="30" as="geometry" />
        </mxCell>
        <mxCell id="5K8ycT09jUTQX0kZtNFb-61" value="" style="endArrow=classic;html=1;rounded=0;strokeColor=#457B9D;fontSize=12;fontColor=#1D3557;fillColor=#A8DADC;entryX=-0.043;entryY=0.363;entryDx=0;entryDy=0;entryPerimeter=0;labelBackgroundColor=#F1FAEE;" edge="1" parent="1" target="5K8ycT09jUTQX0kZtNFb-59">
          <mxGeometry width="50" height="50" relative="1" as="geometry">
            <mxPoint x="59" y="905.13" as="sourcePoint" />
            <mxPoint x="669" y="700" as="targetPoint" />
            <Array as="points">
              <mxPoint x="59" y="710" />
            </Array>
          </mxGeometry>
        </mxCell>
        <mxCell id="5K8ycT09jUTQX0kZtNFb-62" value="" style="endArrow=classic;html=1;rounded=0;strokeColor=#457B9D;fontSize=12;fontColor=#1D3557;fillColor=#A8DADC;labelBackgroundColor=#F1FAEE;" edge="1" parent="1">
          <mxGeometry width="50" height="50" relative="1" as="geometry">
            <mxPoint x="689" y="750" as="sourcePoint" />
            <mxPoint x="599" y="770" as="targetPoint" />
            <Array as="points">
              <mxPoint x="689" y="770" />
            </Array>
          </mxGeometry>
        </mxCell>
        <mxCell id="5K8ycT09jUTQX0kZtNFb-63" value="" style="endArrow=classic;html=1;rounded=0;strokeColor=#457B9D;fontSize=12;fontColor=#1D3557;fillColor=#A8DADC;exitX=1;exitY=0.5;exitDx=0;exitDy=0;entryX=0;entryY=0.5;entryDx=0;entryDy=0;labelBackgroundColor=#F1FAEE;" edge="1" parent="1" source="5K8ycT09jUTQX0kZtNFb-55" target="5K8ycT09jUTQX0kZtNFb-58">
          <mxGeometry width="50" height="50" relative="1" as="geometry">
            <mxPoint x="379" y="860" as="sourcePoint" />
            <mxPoint x="429" y="810" as="targetPoint" />
          </mxGeometry>
        </mxCell>
        <mxCell id="5K8ycT09jUTQX0kZtNFb-65" value="" style="endArrow=classic;html=1;rounded=0;strokeColor=#457B9D;fontSize=12;fontColor=#1D3557;fillColor=#A8DADC;entryX=0;entryY=0.5;entryDx=0;entryDy=0;labelBackgroundColor=#F1FAEE;" edge="1" parent="1" target="5K8ycT09jUTQX0kZtNFb-57">
          <mxGeometry width="50" height="50" relative="1" as="geometry">
            <mxPoint x="389" y="945" as="sourcePoint" />
            <mxPoint x="473" y="890" as="targetPoint" />
          </mxGeometry>
        </mxCell>
        <mxCell id="5K8ycT09jUTQX0kZtNFb-66" value="" style="endArrow=classic;html=1;rounded=0;strokeColor=#457B9D;fontSize=12;fontColor=#1D3557;fillColor=#A8DADC;entryX=0;entryY=0.5;entryDx=0;entryDy=0;exitX=1;exitY=0.5;exitDx=0;exitDy=0;labelBackgroundColor=#F1FAEE;" edge="1" parent="1" source="5K8ycT09jUTQX0kZtNFb-48" target="5K8ycT09jUTQX0kZtNFb-53">
          <mxGeometry width="50" height="50" relative="1" as="geometry">
            <mxPoint x="379" y="1030" as="sourcePoint" />
            <mxPoint x="429" y="980" as="targetPoint" />
          </mxGeometry>
        </mxCell>
        <mxCell id="5K8ycT09jUTQX0kZtNFb-67" value="approve product" style="ellipse;whiteSpace=wrap;html=1;aspect=fixed;strokeColor=#457B9D;fontColor=#1D3557;fillColor=#A8DADC;rounded=0;" vertex="1" parent="1">
          <mxGeometry x="629" y="1010" width="70" height="70" as="geometry" />
        </mxCell>
        <mxCell id="5K8ycT09jUTQX0kZtNFb-68" value="" style="endArrow=classic;html=1;rounded=0;strokeColor=#457B9D;fontSize=12;fontColor=#1D3557;fillColor=#A8DADC;exitX=0.433;exitY=1.02;exitDx=0;exitDy=0;exitPerimeter=0;labelBackgroundColor=#F1FAEE;" edge="1" parent="1" source="5K8ycT09jUTQX0kZtNFb-13">
          <mxGeometry width="50" height="50" relative="1" as="geometry">
            <mxPoint x="99" y="1080" as="sourcePoint" />
            <mxPoint x="629" y="1060" as="targetPoint" />
            <Array as="points">
              <mxPoint x="97" y="1060" />
            </Array>
          </mxGeometry>
        </mxCell>
        <mxCell id="5K8ycT09jUTQX0kZtNFb-69" value="" style="endArrow=classic;html=1;rounded=0;strokeColor=#457B9D;fontSize=12;fontColor=#1D3557;fillColor=#A8DADC;labelBackgroundColor=#F1FAEE;" edge="1" parent="1">
          <mxGeometry width="50" height="50" relative="1" as="geometry">
            <mxPoint x="151.29000000000002" y="910" as="sourcePoint" />
            <mxPoint x="429" y="890" as="targetPoint" />
            <Array as="points">
              <mxPoint x="151" y="890" />
            </Array>
          </mxGeometry>
        </mxCell>
        <mxCell id="5K8ycT09jUTQX0kZtNFb-70" value="edite/block&lt;br&gt;seller" style="ellipse;whiteSpace=wrap;html=1;aspect=fixed;strokeColor=#457B9D;fontColor=#1D3557;fillColor=#A8DADC;rounded=0;" vertex="1" parent="1">
          <mxGeometry x="438" y="850" width="70" height="70" as="geometry" />
        </mxCell>
        <mxCell id="5K8ycT09jUTQX0kZtNFb-72" value="" style="endArrow=classic;html=1;rounded=0;strokeColor=#457B9D;fontSize=12;fontColor=#1D3557;fillColor=#A8DADC;entryX=0.75;entryY=1;entryDx=0;entryDy=0;labelBackgroundColor=#F1FAEE;" edge="1" parent="1" target="5K8ycT09jUTQX0kZtNFb-58">
          <mxGeometry width="50" height="50" relative="1" as="geometry">
            <mxPoint x="509" y="890" as="sourcePoint" />
            <mxPoint x="788.1400000000001" y="950.81" as="targetPoint" />
            <Array as="points">
              <mxPoint x="584" y="890" />
            </Array>
          </mxGeometry>
        </mxCell>
        <mxCell id="5K8ycT09jUTQX0kZtNFb-75" value="" style="endArrow=classic;html=1;rounded=0;strokeColor=#457B9D;fontSize=12;fontColor=#1D3557;fillColor=#A8DADC;entryX=0.636;entryY=-0.02;entryDx=0;entryDy=0;entryPerimeter=0;labelBackgroundColor=#F1FAEE;" edge="1" parent="1" target="5K8ycT09jUTQX0kZtNFb-76">
          <mxGeometry width="50" height="50" relative="1" as="geometry">
            <mxPoint x="609" y="710" as="sourcePoint" />
            <mxPoint x="669" y="630" as="targetPoint" />
            <Array as="points">
              <mxPoint x="609" y="670" />
              <mxPoint x="759" y="670" />
            </Array>
          </mxGeometry>
        </mxCell>
        <mxCell id="5K8ycT09jUTQX0kZtNFb-76" value="unblock customer" style="ellipse;whiteSpace=wrap;html=1;aspect=fixed;strokeColor=#457B9D;fontColor=#1D3557;fillColor=#A8DADC;rounded=0;" vertex="1" parent="1">
          <mxGeometry x="714" y="730" width="70" height="70" as="geometry" />
        </mxCell>
        <mxCell id="5K8ycT09jUTQX0kZtNFb-77" value="" style="endArrow=none;html=1;rounded=0;strokeColor=#457B9D;fontSize=12;fontColor=#1D3557;fillColor=#A8DADC;labelBackgroundColor=#F1FAEE;" edge="1" parent="1">
          <mxGeometry width="50" height="50" relative="1" as="geometry">
            <mxPoint x="689" y="770" as="sourcePoint" />
            <mxPoint x="714" y="770" as="targetPoint" />
          </mxGeometry>
        </mxCell>
        <mxCell id="5K8ycT09jUTQX0kZtNFb-78" value="edite/block&lt;br&gt;product" style="ellipse;whiteSpace=wrap;html=1;aspect=fixed;strokeColor=#457B9D;fontColor=#1D3557;fillColor=#A8DADC;rounded=0;" vertex="1" parent="1">
          <mxGeometry x="524" y="1070" width="70" height="70" as="geometry" />
        </mxCell>
        <mxCell id="5K8ycT09jUTQX0kZtNFb-79" value="unblock product" style="ellipse;whiteSpace=wrap;html=1;aspect=fixed;strokeColor=#457B9D;fontColor=#1D3557;fillColor=#A8DADC;rounded=0;" vertex="1" parent="1">
          <mxGeometry x="724" y="1060" width="70" height="70" as="geometry" />
        </mxCell>
        <mxCell id="5K8ycT09jUTQX0kZtNFb-80" value="product table" style="html=1;dashed=0;whitespace=wrap;shape=partialRectangle;right=0;left=0;strokeColor=#457B9D;fontSize=12;fontColor=#1D3557;fillColor=#A8DADC;rounded=0;" vertex="1" parent="1">
          <mxGeometry x="694" y="970" width="100" height="30" as="geometry" />
        </mxCell>
        <mxCell id="5K8ycT09jUTQX0kZtNFb-81" value="" style="endArrow=classic;html=1;rounded=0;strokeColor=#457B9D;fontSize=12;fontColor=#1D3557;fillColor=#A8DADC;endFill=1;labelBackgroundColor=#F1FAEE;" edge="1" parent="1">
          <mxGeometry width="50" height="50" relative="1" as="geometry">
            <mxPoint x="319" y="1060" as="sourcePoint" />
            <mxPoint x="524" y="1100" as="targetPoint" />
            <Array as="points">
              <mxPoint x="319" y="1100" />
            </Array>
          </mxGeometry>
        </mxCell>
        <mxCell id="5K8ycT09jUTQX0kZtNFb-82" value="" style="endArrow=classic;html=1;rounded=0;strokeColor=#457B9D;fontSize=12;fontColor=#1D3557;fillColor=#A8DADC;entryX=0.5;entryY=1;entryDx=0;entryDy=0;endFill=1;labelBackgroundColor=#F1FAEE;" edge="1" parent="1" target="5K8ycT09jUTQX0kZtNFb-79">
          <mxGeometry width="50" height="50" relative="1" as="geometry">
            <mxPoint x="319" y="1100" as="sourcePoint" />
            <mxPoint x="429" y="950" as="targetPoint" />
            <Array as="points">
              <mxPoint x="319" y="1150" />
              <mxPoint x="759" y="1150" />
            </Array>
          </mxGeometry>
        </mxCell>
        <mxCell id="5K8ycT09jUTQX0kZtNFb-83" value="" style="endArrow=classic;html=1;rounded=0;strokeColor=#457B9D;fontSize=12;fontColor=#1D3557;fillColor=#A8DADC;entryX=0;entryY=0.25;entryDx=0;entryDy=0;labelBackgroundColor=#F1FAEE;" edge="1" parent="1" target="5K8ycT09jUTQX0kZtNFb-80">
          <mxGeometry width="50" height="50" relative="1" as="geometry">
            <mxPoint x="649" y="1010" as="sourcePoint" />
            <mxPoint x="429" y="950" as="targetPoint" />
            <Array as="points">
              <mxPoint x="649" y="978" />
            </Array>
          </mxGeometry>
        </mxCell>
        <mxCell id="5K8ycT09jUTQX0kZtNFb-84" value="" style="endArrow=classic;html=1;rounded=0;strokeColor=#457B9D;fontSize=12;fontColor=#1D3557;fillColor=#A8DADC;entryX=0.16;entryY=0.967;entryDx=0;entryDy=0;entryPerimeter=0;labelBackgroundColor=#F1FAEE;" edge="1" parent="1" target="5K8ycT09jUTQX0kZtNFb-80">
          <mxGeometry width="50" height="50" relative="1" as="geometry">
            <mxPoint x="594" y="1100" as="sourcePoint" />
            <mxPoint x="644" y="1050" as="targetPoint" />
            <Array as="points">
              <mxPoint x="709" y="1100" />
            </Array>
          </mxGeometry>
        </mxCell>
        <mxCell id="5K8ycT09jUTQX0kZtNFb-85" value="" style="endArrow=none;html=1;rounded=0;strokeColor=#457B9D;fontSize=12;fontColor=#1D3557;fillColor=#A8DADC;entryX=0.5;entryY=0;entryDx=0;entryDy=0;labelBackgroundColor=#F1FAEE;" edge="1" parent="1" target="5K8ycT09jUTQX0kZtNFb-79">
          <mxGeometry width="50" height="50" relative="1" as="geometry">
            <mxPoint x="709" y="1040" as="sourcePoint" />
            <mxPoint x="789" y="1000" as="targetPoint" />
            <Array as="points">
              <mxPoint x="759" y="1040" />
            </Array>
          </mxGeometry>
        </mxCell>
        <mxCell id="5K8ycT09jUTQX0kZtNFb-86" value="unblock seller" style="ellipse;whiteSpace=wrap;html=1;aspect=fixed;strokeColor=#457B9D;fontColor=#1D3557;fillColor=#A8DADC;rounded=0;" vertex="1" parent="1">
          <mxGeometry x="709" y="830" width="70" height="70" as="geometry" />
        </mxCell>
        <mxCell id="5K8ycT09jUTQX0kZtNFb-87" value="" style="endArrow=none;html=1;exitX=0;exitY=1;exitDx=0;exitDy=0;labelBackgroundColor=#F1FAEE;strokeColor=#457B9D;fontColor=#1D3557;endFill=0;" edge="1" parent="1" source="5K8ycT09jUTQX0kZtNFb-86">
          <mxGeometry width="50" height="50" relative="1" as="geometry">
            <mxPoint x="379" y="910" as="sourcePoint" />
            <mxPoint x="579" y="890" as="targetPoint" />
          </mxGeometry>
        </mxCell>
        <mxCell id="5K8ycT09jUTQX0kZtNFb-88" value="" style="endArrow=classic;html=1;rounded=0;strokeColor=#457B9D;fontColor=#1D3557;fillColor=#A8DADC;entryX=0.5;entryY=0;entryDx=0;entryDy=0;" edge="1" parent="1" target="5K8ycT09jUTQX0kZtNFb-86">
          <mxGeometry width="50" height="50" relative="1" as="geometry">
            <mxPoint x="199" y="840" as="sourcePoint" />
            <mxPoint x="429" y="770" as="targetPoint" />
            <Array as="points">
              <mxPoint x="199" y="810" />
              <mxPoint x="744" y="810" />
            </Array>
          </mxGeometry>
        </mxCell>
        <mxCell id="5K8ycT09jUTQX0kZtNFb-89" value="&lt;font size=&quot;1&quot; style=&quot;&quot;&gt;&lt;b style=&quot;font-size: 22px;&quot;&gt;E-commerce System DFD&lt;/b&gt;&lt;/font&gt;" style="text;html=1;align=center;verticalAlign=middle;resizable=0;points=[];autosize=1;strokeColor=none;fillColor=none;fontColor=#1D3557;" vertex="1" parent="1">
          <mxGeometry x="5" y="1110" width="290" height="40" as="geometry" />
        </mxCell>
      </root>
    </mxGraphModel>
  </diagram>
</mxfile>
